<svg width="13" height="18" viewBox="0 0 13 18" fill="none" xmlns="http://www.w3.org/2000/svg">
<path d="M6.21246 0C2.78141 0 0 2.78139 0 6.21244C0 7.31115 0.296419 8.35751 0.832461 9.29118C0.842227 9.30886 2.51338 11.935 2.66248 12.4249H9.76239C9.90883 11.9377 11.5747 9.33016 11.5649 9.34614C12.1178 8.40277 12.4249 7.32894 12.4249 6.21244C12.4249 2.78139 9.64354 0 6.21246 0ZM6.21246 3.54997C6.70235 3.54997 7.09991 3.94756 7.09991 4.43746C7.09991 4.92735 6.70235 5.32496 6.21246 5.32496C5.72256 5.32496 5.32495 5.72255 5.32495 6.21244C5.32495 6.70234 4.92736 7.09997 4.43747 7.09997C3.94757 7.09997 3.54998 6.70234 3.54998 6.21244C3.54998 4.74187 4.74187 3.54997 6.21246 3.54997ZM2.66248 14.1998C2.66248 16.1604 4.25198 17.7499 6.21246 17.7499C8.17289 17.7499 9.76239 16.1604 9.76239 14.1998H2.66248Z" fill="#3F85A2"/>
</svg>
