<svg width="18" height="16" viewBox="0 0 18 16" fill="none" xmlns="http://www.w3.org/2000/svg">
<path d="M3.54997 0C1.5895 0 0 1.58859 0 3.54818C0 4.62204 0.462366 5.57259 1.21673 6.22312C0.462366 6.87368 0 7.79575 0 8.86958L0 12.4178C0 14.3765 1.5895 15.9749 3.54997 15.9749H9.76147C11.6057 15.9749 13.1385 14.5744 13.3124 12.7772L16.2233 15.7158C16.7824 16.2749 17.7489 15.8684 17.7489 15.0785V6.20887C17.7489 5.81394 17.5031 5.50513 17.1943 5.37733C16.8854 5.24953 16.5029 5.29209 16.2233 5.57077C15.8524 5.94173 14.4972 7.35282 13.3052 8.54475C13.1926 7.38743 12.5527 6.39613 11.5986 5.83435C12.1356 5.21311 12.424 4.433 12.424 3.54818C12.424 1.58859 10.8345 0 8.87403 0C7.80017 0 6.86297 0.493475 6.21244 1.24695C5.56102 0.493475 4.62383 0 3.54997 0ZM3.54997 1.77412C4.52976 1.77412 5.32496 2.56839 5.32496 3.54818C5.32496 4.52709 4.52976 5.32138 3.54997 5.32138C2.56929 5.32138 1.77498 4.52797 1.77498 3.54818C1.77498 2.56839 2.56929 1.77412 3.54997 1.77412ZM8.87403 1.77412C9.85466 1.77412 10.649 2.56839 10.649 3.54818C10.649 4.52709 9.85466 5.32138 8.87403 5.32138C7.89424 5.32138 7.09993 4.52797 7.09993 3.54818C7.09993 2.56839 7.89424 1.77412 8.87403 1.77412Z" fill="#3F85A2"/>
</svg>
