<svg width="14" height="13" viewBox="0 0 14 13" fill="none" xmlns="http://www.w3.org/2000/svg">
<path fill-rule="evenodd" clip-rule="evenodd" d="M6.83616 -4.54375e-06C3.06055 -2.03424e-06 -2.03424e-06 2.80567 -4.54375e-06 6.26686C-7.05327e-06 9.72804 3.06054 12.5337 6.83615 12.5337C10.6118 12.5337 13.6723 9.72803 13.6723 6.26685C13.6723 2.80566 10.6118 -7.05327e-06 6.83616 -4.54375e-06ZM10.0539 5.45717C10.1785 5.33898 10.2474 5.18068 10.2458 5.01636C10.2443 4.85205 10.1724 4.69487 10.0456 4.57867C9.91887 4.46248 9.74741 4.39657 9.56816 4.39515C9.38892 4.39372 9.21624 4.45688 9.08731 4.57104L6.15254 7.2614L4.58501 5.82442C4.45608 5.71026 4.2834 5.64709 4.10415 5.64852C3.92491 5.64995 3.75345 5.71586 3.6267 5.83205C3.49996 5.94824 3.42806 6.10542 3.4265 6.26974C3.42495 6.43405 3.49385 6.59236 3.61838 6.71055L5.54822 8.47968C5.62758 8.55245 5.72179 8.61017 5.82548 8.64955C5.92917 8.68893 6.0403 8.70919 6.15254 8.70919C6.26478 8.70919 6.37591 8.68893 6.4796 8.64955C6.58329 8.61017 6.6775 8.55244 6.75686 8.47968L10.0539 5.45717Z" fill="#008568"/>
</svg>
