<svg width="16" height="16" viewBox="0 0 16 16" fill="none" xmlns="http://www.w3.org/2000/svg">
<path d="M2.66248 0C1.19199 0 0 1.1919 0 2.66248L0 4.43746L0 12.4249C0 14.3854 1.5894 15.9749 3.54997 15.9749H12.4249C14.3854 15.9749 15.9748 14.3854 15.9748 12.4249V4.43746C15.9748 3.94756 15.5776 3.54997 15.0874 3.54997C15.0874 3.54997 12.5111 3.54997 10.6499 3.54997C9.98009 3.54997 9.76464 3.33253 9.23544 2.27375C8.4334 0.67005 7.76139 0 6.21244 0L2.66248 0ZM2.66248 1.77498H6.21244C6.88224 1.77498 7.09772 1.99242 7.62692 3.0512C7.74274 3.28284 7.79076 3.35649 7.90418 3.54997C4.84598 3.54997 2.64917 3.54997 1.77498 3.54997V2.66248C1.77498 2.17258 2.17232 1.77498 2.66248 1.77498ZM6.21244 8.8749H9.7624C10.2526 8.8749 10.6499 9.27257 10.6499 9.76246C10.6499 10.2524 10.2526 10.6499 9.7624 10.6499H6.21244C5.72228 10.6499 5.32496 10.2524 5.32496 9.76246C5.32496 9.27257 5.72228 8.8749 6.21244 8.8749Z" fill="#3F85A2"/>
</svg>
