<svg width="20" height="17" viewBox="0 0 20 17" fill="none" xmlns="http://www.w3.org/2000/svg">
<path d="M1.99686 0C0.894028 0 0 0.911909 0 2.0368L0 14.2576C0 15.3824 0.894028 16.2944 1.99686 16.2944H17.173C18.2758 16.2944 19.1698 15.3824 19.1698 14.2576V2.0368C19.1698 0.911909 18.2758 0 17.173 0L1.99686 0Z" fill="#3F85A2"/>
<path d="M4.55024 10.2789C4.23836 10.2789 4.02964 10.0567 4.02964 9.71237V7.28366H4.00999L3.63427 7.57099C3.54586 7.63872 3.48939 7.66045 3.39115 7.66045C3.19715 7.66045 3.04736 7.50049 3.04736 7.27279C3.04736 7.11294 3.1063 6.9828 3.24381 6.87981L3.8872 6.40546C4.09348 6.25362 4.27274 6.23193 4.47411 6.23193C4.84983 6.23193 5.07085 6.48129 5.07085 6.87438V9.71237C5.07085 10.0567 4.86211 10.2789 4.55024 10.2789Z" fill="white"/>
<path d="M7.39867 10.2789C6.46764 10.2789 5.87988 9.51417 5.87988 8.24747C5.87988 6.97278 6.4747 6.23193 7.39867 6.23193C8.32263 6.23193 8.91511 6.97012 8.91511 8.24481C8.91511 9.50885 8.32969 10.2789 7.39867 10.2789ZM7.39867 9.41321C7.70431 9.41321 7.89945 9.04941 7.89945 8.24747C7.89945 7.44287 7.70431 7.0976 7.39867 7.0976C7.09303 7.0976 6.89554 7.44287 6.89554 8.24747C6.89554 9.04941 7.09303 9.41321 7.39867 9.41321Z" fill="white"/>
<path d="M11.2408 10.2789C10.3369 10.2789 9.72437 9.82185 9.72437 9.13365C9.72437 8.60222 10.0882 8.25141 10.5765 8.16376V8.14246C10.1515 8.04949 9.84641 7.71998 9.84641 7.28951C9.84641 6.67565 10.4098 6.23193 11.2408 6.23193C12.0717 6.23193 12.6351 6.67565 12.6351 7.29218C12.6351 7.71466 12.33 8.04949 11.9097 8.14246V8.16376C12.398 8.25141 12.7596 8.60488 12.7596 9.13631C12.7596 9.82185 12.1399 10.2789 11.2408 10.2789ZM11.2408 7.83692C11.4802 7.83692 11.6539 7.66151 11.6539 7.40645C11.6539 7.15138 11.4779 6.97864 11.2408 6.97864C11.0036 6.97864 10.8299 7.15138 10.8299 7.40645C10.8299 7.66151 11.0013 7.83692 11.2408 7.83692ZM11.2408 9.52961C11.5202 9.52961 11.7079 9.32759 11.7079 9.05122C11.7079 8.78018 11.5202 8.58358 11.2408 8.58358C10.9615 8.58358 10.7736 8.78018 10.7736 9.05122C10.7736 9.32759 10.9615 9.52961 11.2408 9.52961Z" fill="white"/>
<path d="M15.0876 10.2789C14.1566 10.2789 13.5688 9.51417 13.5688 8.24747C13.5688 6.97278 14.1636 6.23193 15.0876 6.23193C16.0116 6.23193 16.6041 6.97012 16.6041 8.24481C16.6041 9.50885 16.0186 10.2789 15.0876 10.2789ZM15.0876 9.41321C15.3933 9.41321 15.5884 9.04941 15.5884 8.24747C15.5884 7.44287 15.3933 7.0976 15.0876 7.0976C14.782 7.0976 14.5845 7.44287 14.5845 8.24747C14.5845 9.04941 14.782 9.41321 15.0876 9.41321Z" fill="white"/>
</svg>
